<svg version="1.1" xmlns="http://www.w3.org/2000/svg" viewBox="0 0 204.796875 202.109375" width="409.59375" height="404.21875">
  <!-- svg-source:excalidraw -->
  
  <defs>
    <style class="style-fonts">
      @font-face {
        font-family: "Virgil";
        src: url("https://excalidraw.com/Virgil.woff2");
      }
      @font-face {
        font-family: "Cascadia";
        src: url("https://excalidraw.com/Cascadia.woff2");
      }
    </style>
  </defs>
  <rect x="0" y="0" width="204.796875" height="202.109375" fill="#ffffff"></rect><g stroke-linecap="round" transform="translate(10 10) rotate(0 92.3984375 91.0546875)"><path d="M133.09 9.97 C143.92 13.54, 154.03 21.21, 161.73 29.86 C169.43 38.52, 175.45 50.78, 179.29 61.89 C183.12 73, 185.38 85.17, 184.75 96.51 C184.12 107.86, 180.72 119.46, 175.51 129.97 C170.3 140.49, 162.41 151.59, 153.49 159.6 C144.56 167.62, 133.03 174.25, 121.97 178.07 C110.91 181.89, 98.74 183.45, 87.14 182.51 C75.54 181.57, 62.99 177.47, 52.38 172.42 C41.77 167.37, 31.4 160.87, 23.47 152.23 C15.54 143.59, 8.59 131.57, 4.81 120.57 C1.04 109.57, 0.21 97.84, 0.82 86.23 C1.43 74.62, 3.4 61.47, 8.49 50.93 C13.57 40.39, 22.31 30.48, 31.33 22.97 C40.36 15.47, 51.53 9.68, 62.64 5.91 C73.75 2.14, 85.16 -0.75, 97.98 0.35 C110.81 1.46, 131.72 9.48, 139.61 12.54 C147.5 15.6, 146.27 17.27, 145.3 18.73 M49.65 10.29 C59.11 3.84, 72.93 2.86, 84.52 1.66 C96.11 0.46, 108.1 -0.03, 119.18 3.08 C130.26 6.19, 141.74 13.05, 151.01 20.3 C160.27 27.55, 169.26 36.19, 174.78 46.58 C180.29 56.98, 183.2 71.03, 184.11 82.67 C185.02 94.31, 183.6 105.34, 180.22 116.43 C176.84 127.52, 170.98 139.83, 163.84 149.21 C156.7 158.58, 147.65 167.52, 137.37 172.68 C127.08 177.84, 114.03 179.08, 102.15 180.15 C90.27 181.22, 77.36 181.96, 66.08 179.11 C54.8 176.25, 43.57 170.31, 34.46 163 C25.34 155.68, 17.18 145.51, 11.4 135.23 C5.61 124.94, 1.19 112.96, -0.23 101.29 C-1.65 89.62, -0.82 76.55, 2.88 65.21 C6.57 53.87, 14.19 42.43, 21.93 33.27 C29.67 24.11, 44.96 13.75, 49.31 10.25 C53.67 6.75, 47.32 10.94, 48.07 12.28" stroke="#000000" stroke-width="1" fill="none"></path></g><g transform="translate(56.1796875 81.5625) rotate(0 45.55808664175362 19.00234374999991)"><text x="0" y="0" font-family="Virgil, Segoe UI Emoji" font-size="31.67057291666662px" fill="#000000" text-anchor="start" style="white-space: pre;" direction="ltr" dominant-baseline="text-before-edge">Heads</text></g></svg>