<svg version="1.1" xmlns="http://www.w3.org/2000/svg" viewBox="0 0 204.796875 202.109375" width="409.59375" height="404.21875">
  <!-- svg-source:excalidraw -->
  
  <defs>
    <style class="style-fonts">
      @font-face {
        font-family: "Virgil";
        src: url("https://excalidraw.com/Virgil.woff2");
      }
      @font-face {
        font-family: "Cascadia";
        src: url("https://excalidraw.com/Cascadia.woff2");
      }
    </style>
  </defs>
  <rect x="0" y="0" width="204.796875" height="202.109375" fill="#ffffff"></rect><g stroke-linecap="round" transform="translate(10 10) rotate(0 92.3984375 91.0546875)"><path d="M92.95 0.93 C104.16 -0.58, 117.48 2.21, 128.5 6.64 C139.51 11.07, 150.85 18.95, 159.06 27.49 C167.27 36.04, 173.46 47.07, 177.77 57.91 C182.07 68.75, 184.96 81.12, 184.91 92.53 C184.86 103.94, 182.08 115.77, 177.47 126.37 C172.86 136.97, 165.54 147.78, 157.28 156.11 C149.01 164.44, 138.74 171.91, 127.89 176.36 C117.03 180.82, 104.03 183.19, 92.13 182.83 C80.23 182.47, 67.46 178.87, 56.46 174.21 C45.47 169.54, 34.31 162.87, 26.16 154.83 C18 146.79, 12.01 136.8, 7.52 125.95 C3.04 115.11, -0.66 101.4, -0.75 89.77 C-0.84 78.14, 2.33 66.73, 6.99 56.18 C11.64 45.63, 18.63 34.84, 27.19 26.46 C35.76 18.09, 46.77 10.38, 58.37 5.94 C69.96 1.5, 89.99 0.36, 96.76 -0.17 C103.53 -0.71, 99.14 1.13, 98.98 2.72 M54.58 8.87 C64.37 3.08, 77.45 0.77, 89.26 -0.02 C101.08 -0.8, 114.41 0, 125.48 4.18 C136.56 8.36, 147 16.73, 155.72 25.07 C164.45 33.42, 172.79 43.97, 177.83 54.26 C182.86 64.56, 185.96 75.28, 185.92 86.82 C185.88 98.36, 182.02 112.38, 177.59 123.51 C173.16 134.63, 166.91 144.97, 159.31 153.59 C151.71 162.21, 142.58 170.63, 131.97 175.25 C121.37 179.86, 107.89 181.13, 95.69 181.28 C83.49 181.43, 69.7 180, 58.8 176.16 C47.89 172.33, 38.8 165.91, 30.25 158.27 C21.7 150.62, 12.71 140.69, 7.51 130.3 C2.3 119.9, -0.8 107.52, -0.98 95.88 C-1.16 84.25, 2.33 71.36, 6.43 60.48 C10.53 49.6, 15.94 39.25, 23.61 30.59 C31.28 21.94, 47.52 11.86, 52.47 8.54 C57.42 5.22, 52.57 9.11, 53.31 10.65" stroke="#000000" stroke-width="1" fill="none"></path></g><g transform="translate(55.921875 82.0703125) rotate(0 39.52415466308594 18.600000000000023)"><text x="0" y="0" font-family="Virgil, Segoe UI Emoji" font-size="31.67057291666662px" fill="#000000" text-anchor="start" style="white-space: pre;" direction="ltr" dominant-baseline="text-before-edge">Tails</text></g></svg>